<svg width="25" height="24" viewBox="0 0 25 24" fill="none" xmlns="http://www.w3.org/2000/svg">
<path d="M20.0821 8.29624C19.7254 7.92433 19.1209 7.89921 18.7319 8.24013L12.3333 13.848L5.93461 8.24013C5.57798 7.92762 5.04032 7.92268 4.67849 8.2105L4.58444 8.29624C4.22781 8.66816 4.25409 9.24603 4.64314 9.58695L11.6875 15.7599C11.692 15.7638 11.6965 15.7677 11.7011 15.7715L11.6288 15.7038C11.6689 15.7456 11.7122 15.783 11.7579 15.8161C11.7749 15.8282 11.792 15.8397 11.8094 15.8507C11.8271 15.8619 11.8453 15.8725 11.8639 15.8825C11.8808 15.8915 11.8975 15.9 11.9145 15.9079C11.9345 15.9172 11.9552 15.926 11.9761 15.934C11.9947 15.9412 12.0134 15.9478 12.0323 15.9538C12.0511 15.9596 12.0698 15.9649 12.0886 15.9697C12.1096 15.975 12.1307 15.9796 12.152 15.9835C12.1738 15.9875 12.1958 15.9908 12.2178 15.9933C12.2339 15.9952 12.2502 15.9967 12.2665 15.9978C12.2891 15.9993 12.3114 16 12.3338 16C12.3557 16 12.3778 15.9992 12.3998 15.9978C12.4163 15.9967 12.4327 15.9952 12.4489 15.9933C12.4707 15.9908 12.4927 15.9875 12.5146 15.9835C12.5358 15.9796 12.5569 15.975 12.5779 15.9697C12.5967 15.9649 12.6154 15.9596 12.634 15.9538C12.6531 15.9478 12.6719 15.9412 12.6904 15.934C12.7113 15.926 12.732 15.9172 12.7524 15.9077C12.769 15.9 12.7857 15.8915 12.8023 15.8826C12.8212 15.8725 12.8394 15.8619 12.8573 15.8506C12.8745 15.8397 12.8916 15.8282 12.9085 15.816C12.9543 15.783 12.9976 15.7456 13.0377 15.7038L12.9654 15.7715C12.97 15.7677 12.9745 15.7638 12.979 15.7599L20.0234 9.58695C20.4124 9.24603 20.4387 8.66816 20.0821 8.29624Z" fill="#F4F2FA"/>
</svg>
