<svg width="142" height="41" viewBox="0 0 142 41" fill="none" xmlns="http://www.w3.org/2000/svg">
<path d="M15.4016 7.31079V18.4652H5.16766V7.31079H0.305664V33.9214H5.16766V23.1412H15.4016V33.9214H20.2636V7.31079H15.4016Z" fill="#33475B"/>
<path d="M37.0954 25.5361C37.1299 26.0948 37.0552 26.6552 36.8761 27.1823C36.697 27.7095 36.4171 28.1923 36.0539 28.6009C35.6906 29.0095 35.2517 29.3352 34.7643 29.5579C34.2769 29.7806 33.7513 29.8954 33.2201 29.8954C32.6889 29.8954 32.1633 29.7806 31.6759 29.5579C31.1885 29.3352 30.7496 29.0095 30.3864 28.6009C30.0231 28.1923 29.7433 27.7095 29.5642 27.1823C29.385 26.6552 29.3104 26.0948 29.3449 25.5361V13.9634H24.9043V25.5361C24.9994 27.7936 25.9171 29.9254 27.4662 31.4875C29.0153 33.0495 31.0764 33.9214 33.2201 33.9214C35.3639 33.9214 37.425 33.0495 38.9741 31.4875C40.5232 29.9254 41.4409 27.7936 41.5359 25.5361V13.9634H37.0954V25.5361Z" fill="#33475B"/>
<path d="M70.8045 15.0722C70.7665 14.6423 70.8268 14.2094 70.9809 13.8059C71.135 13.4024 71.3789 13.0387 71.6944 12.7418C72.01 12.445 72.3889 12.2227 72.8031 12.0916C73.2172 11.9605 73.6558 11.924 74.0861 11.9847C75.7818 12.1923 77.3412 13.0119 78.4674 14.2875L81.5257 10.7224C80.6462 9.68295 79.5541 8.84117 78.3217 8.25297C77.0894 7.66477 75.7452 7.34359 74.3782 7.31079C69.2238 7.31079 65.6672 10.2448 65.6672 15.1234C65.6672 24.1641 76.8008 21.2984 76.8008 26.3476C76.7352 27.1604 76.3585 27.9174 75.7482 28.463C75.1378 29.0087 74.3402 29.3016 73.5191 29.2815C70.7701 29.2815 69.8767 27.951 68.6052 26.5352L65.1689 29.9468C66.1033 31.187 67.3173 32.1925 68.7137 32.8827C70.1101 33.5729 71.65 33.9286 73.2099 33.9213C78.0035 33.9213 81.8006 30.9532 81.8006 26.2964C81.8006 16.2663 70.667 19.4732 70.667 15.0381" fill="#33475B"/>
<path d="M140.012 29.5987C137.223 29.5987 136.443 28.4108 136.443 26.586V18.4945H140.757V14.4316H136.46V8.97412L131.696 11.1089V27.5845C131.696 31.8024 134.624 33.9199 138.626 33.9199C139.258 33.9312 139.89 33.8851 140.514 33.7822L141.675 29.5299C141.155 29.5299 140.549 29.5299 140.029 29.5299" fill="#33475B"/>
<path d="M55.4561 13.9505C54.4289 13.904 53.4034 14.0736 52.4473 14.4482C51.4912 14.8228 50.6261 15.3939 49.9091 16.1238V7.31079H45.2261V23.6533C45.1541 24.9462 45.3431 26.2404 45.7823 27.46C46.2214 28.6797 46.9018 29.8004 47.7836 30.7565C48.6654 31.7126 49.7309 32.4849 50.9178 33.0282C52.1046 33.5716 53.389 33.8751 54.6957 33.9209C57.4191 33.9487 60.0442 32.9142 62.0037 31.041C63.9632 29.1678 65.0997 26.6063 65.1676 23.91C65.1905 22.62 64.9566 21.3382 64.4791 20.1378C64.0017 18.9374 63.2901 17.8419 62.3851 16.9138C61.48 15.9858 60.3992 15.2434 59.2044 14.729C58.0096 14.2147 56.7242 13.9385 55.4215 13.9163M55.4215 29.3176C54.3689 29.3176 53.3398 29.0085 52.4646 28.4293C51.5893 27.8502 50.9072 27.027 50.5043 26.0639C50.1015 25.1008 49.9961 24.0411 50.2014 23.0187C50.4068 21.9962 50.9137 21.0571 51.6581 20.32C52.4024 19.5829 53.3507 19.0809 54.3832 18.8775C55.4156 18.6741 56.4858 18.7785 57.4583 19.1774C58.4308 19.5764 59.2621 20.2519 59.8469 21.1187C60.4317 21.9854 60.7439 23.0045 60.7439 24.0469C60.7439 25.4448 60.1831 26.7854 59.185 27.7738C58.1869 28.7623 56.8331 29.3176 55.4215 29.3176Z" fill="#33475B"/>
<path d="M105.084 23.9577C105.011 21.2644 103.873 18.7073 101.914 16.8377C99.9548 14.9682 97.3322 13.936 94.6118 13.9639C93.305 14.0098 92.0206 14.3132 90.8338 14.8566C89.6469 15.3999 88.5814 16.1723 87.6996 17.1284C86.8178 18.0845 86.1374 19.2051 85.6983 20.4248C85.2591 21.6444 85.0701 22.9386 85.1421 24.2315V40.574H89.8251V31.7781C90.5333 32.5111 91.3915 33.0857 92.3422 33.4635C93.2929 33.8413 94.3142 34.0135 95.3375 33.9686C97.9699 33.9191 100.475 32.837 102.302 30.96C104.13 29.083 105.13 26.5646 105.084 23.9577ZM100.625 23.9577C100.615 24.9949 100.296 26.0061 99.7079 26.8646C99.1199 27.723 98.2892 28.3906 97.3198 28.7836C96.3504 29.1766 95.2854 29.2777 94.2584 29.074C93.2313 28.8704 92.2877 28.3711 91.5458 27.6388C90.8039 26.9065 90.2968 25.9737 90.0879 24.9572C89.8789 23.9408 89.9775 22.8858 90.3713 21.9246C90.765 20.9634 91.4364 20.1386 92.3014 19.5535C93.1664 18.9685 94.1865 18.6492 95.2339 18.6357C95.9328 18.6357 96.6249 18.772 97.2706 19.0369C97.9164 19.3018 98.5031 19.69 98.9973 20.1794C99.4915 20.6688 99.8836 21.2499 100.151 21.8893C100.419 22.5288 100.556 23.2142 100.556 23.9064" fill="#33475B"/>
<path d="M119.787 13.772V9.04735C120.387 8.75198 120.895 8.28522 121.252 7.70113C121.608 7.11704 121.799 6.43952 121.802 5.74704V5.64282C121.797 4.6768 121.428 3.75164 120.773 3.06855C120.118 2.38546 119.231 1.99969 118.305 1.99512H118.205C117.279 1.99969 116.392 2.38546 115.737 3.06855C115.083 3.75164 114.713 4.6768 114.708 5.64282V5.74704C114.711 6.43952 114.902 7.11704 115.258 7.70113C115.615 8.28522 116.123 8.75198 116.723 9.04735V13.772C114.999 14.0582 113.375 14.8064 112.011 15.9432L99.5394 5.81652C99.6267 5.4825 99.6715 5.13792 99.6726 4.79169C99.6758 3.97899 99.4484 3.18347 99.0189 2.50539C98.5895 1.8273 97.9772 1.29699 97.2594 0.981282C96.5415 0.665568 95.75 0.578578 94.9849 0.731278C94.2197 0.883977 93.5149 1.26953 92.9594 1.83935C92.4039 2.40918 92.0225 3.13777 91.8633 3.93333C91.7041 4.72889 91.7742 5.5558 92.0647 6.30989C92.3553 7.06397 92.8533 7.71147 93.496 8.1708C94.1387 8.63012 94.8973 8.88072 95.6763 8.89102C96.36 8.89451 97.0322 8.7087 97.6245 8.35254L109.946 18.375C108.835 20.1107 108.254 22.1572 108.281 24.2443C108.308 26.3314 108.941 28.361 110.096 30.0651L106.366 33.9559C106.064 33.859 105.75 33.8064 105.434 33.7996C104.791 33.7996 104.163 33.9987 103.628 34.3717C103.094 34.7446 102.678 35.2747 102.432 35.8946C102.187 36.5145 102.124 37.1965 102.251 37.854C102.377 38.5115 102.688 39.115 103.144 39.588C103.6 40.061 104.18 40.3822 104.811 40.5109C105.442 40.6397 106.095 40.5701 106.688 40.3111C107.281 40.052 107.787 39.6152 108.142 39.0559C108.496 38.4966 108.684 37.84 108.681 37.1694C108.674 36.8452 108.623 36.5236 108.531 36.214L112.211 32.2711C113.416 33.2582 114.824 33.9427 116.323 34.2716C117.823 34.6006 119.376 34.5652 120.86 34.1681C122.345 33.7711 123.722 33.023 124.885 31.9819C126.048 30.9407 126.966 29.6344 127.568 28.1639C128.169 26.6935 128.439 25.0983 128.355 23.5019C128.271 21.9055 127.836 20.3507 127.084 18.9577C126.332 17.5647 125.282 16.3709 124.017 15.4686C122.752 14.5664 121.304 13.9799 119.787 13.7546M118.255 29.3876C117.243 29.3911 116.253 29.0812 115.411 28.4974C114.568 27.9135 113.91 27.0819 113.521 26.1078C113.131 25.1337 113.027 24.0609 113.223 23.0254C113.418 21.9898 113.904 21.038 114.618 20.2905C115.332 19.543 116.243 19.0334 117.235 18.8262C118.227 18.619 119.256 18.7236 120.191 19.1267C121.126 19.5298 121.925 20.2133 122.488 21.0906C123.05 21.9679 123.35 22.9996 123.35 24.055C123.35 25.4663 122.814 26.8201 121.859 27.8196C120.904 28.8192 119.608 29.383 118.255 29.3876Z" fill="#FF7A59"/>
</svg>
