<svg width="32" height="32" viewBox="0 0 32 32" fill="none" xmlns="http://www.w3.org/2000/svg">
<g clip-path="url(#clip0_67_255)">
<path d="M31 26H3V9C3 8.73478 3.10536 8.48043 3.29289 8.29289C3.48043 8.10536 3.73478 8 4 8H10C10.2652 8 10.5196 7.89464 10.7071 7.70711C10.8946 7.51957 11 7.26522 11 7C11 6.73478 10.8946 6.48043 10.7071 6.29289C10.5196 6.10536 10.2652 6 10 6H4C3.20435 6 2.44129 6.31607 1.87868 6.87868C1.31607 7.44129 1 8.20435 1 9V26C0.734784 26 0.48043 26.1054 0.292893 26.2929C0.105357 26.4804 0 26.7348 0 27L0 29C0 29.7956 0.31607 30.5587 0.87868 31.1213C1.44129 31.6839 2.20435 32 3 32H29C29.7956 32 30.5587 31.6839 31.1213 31.1213C31.6839 30.5587 32 29.7956 32 29V27C32 26.7348 31.8946 26.4804 31.7071 26.2929C31.5196 26.1054 31.2652 26 31 26ZM30 29C30 29.2652 29.8946 29.5196 29.7071 29.7071C29.5196 29.8946 29.2652 30 29 30H3C2.73478 30 2.48043 29.8946 2.29289 29.7071C2.10536 29.5196 2 29.2652 2 29V28H30V29Z" fill="#000033"/>
<path d="M22 8H28C28.2652 8 28.5196 8.10536 28.7071 8.29289C28.8946 8.48043 29 8.73478 29 9V25.9881C29 26.2533 29.1054 26.5076 29.2929 26.6952C29.4804 26.8827 29.7348 26.9881 30 26.9881C30.2652 26.9881 30.5196 26.8827 30.7071 26.6952C30.8946 26.5076 31 26.2533 31 25.9881V9C31 8.20435 30.6839 7.44129 30.1213 6.87868C29.5587 6.31607 28.7956 6 28 6H22C21.7348 6 21.4804 6.10536 21.2929 6.29289C21.1054 6.48043 21 6.73478 21 7C21 7.26522 21.1054 7.51957 21.2929 7.70711C21.4804 7.89464 21.7348 8 22 8Z" fill="#000033"/>
<path d="M26.71 16.29L21.6 11.18C22.6588 9.76235 23.1413 7.99633 22.9507 6.23725C22.7601 4.47817 21.9103 2.85654 20.5725 1.6986C19.2346 0.540666 17.5079 -0.0676659 15.7396 -0.00400924C13.9714 0.0596475 12.2929 0.790569 11.0417 2.04171C9.79057 3.29285 9.05965 4.97138 8.99599 6.73962C8.93233 8.50786 9.54067 10.2346 10.6986 11.5725C11.8565 12.9103 13.4782 13.7601 15.2373 13.9507C16.9963 14.1413 18.7624 13.6588 20.18 12.6L25.29 17.71C25.3835 17.8027 25.4943 17.876 25.6161 17.9258C25.738 17.9756 25.8684 18.0008 26 18C26.1986 18.0012 26.3931 17.9432 26.5586 17.8334C26.7242 17.7236 26.8532 17.5669 26.9294 17.3835C27.0056 17.2001 27.0254 16.9981 26.9863 16.8033C26.9472 16.6086 26.851 16.4299 26.71 16.29ZM11 7.00002C10.9998 6.17799 11.2023 5.36859 11.5896 4.64349C11.9769 3.91839 12.5369 3.29995 13.2202 2.84293C13.9035 2.38591 14.6889 2.1044 15.5069 2.02333C16.3249 1.94226 17.1503 2.06413 17.91 2.37815C18.6697 2.69217 19.3403 3.18865 19.8623 3.82363C20.3844 4.45862 20.7418 5.21252 20.903 6.0186C21.0641 6.82467 21.0241 7.65806 20.7864 8.44496C20.5486 9.23187 20.1206 9.94802 19.54 10.53C18.8413 11.2305 17.9505 11.7079 16.9804 11.9019C16.0102 12.0959 15.0043 11.9977 14.09 11.6198C13.1757 11.2418 12.394 10.6011 11.844 9.77878C11.2939 8.95643 11.0002 7.98937 11 7.00002V7.00002Z" fill="#05058C"/>
<path d="M14 24C13.7348 24 13.4804 23.8946 13.2929 23.7071C13.1054 23.5196 13 23.2652 13 23V20C13 19.7348 13.1054 19.4804 13.2929 19.2929C13.4804 19.1054 13.7348 19 14 19C14.2652 19 14.5196 19.1054 14.7071 19.2929C14.8946 19.4804 15 19.7348 15 20V23C15 23.2652 14.8946 23.5196 14.7071 23.7071C14.5196 23.8946 14.2652 24 14 24Z" fill="#05058C"/>
<path d="M18 24C17.7348 24 17.4804 23.8946 17.2929 23.7071C17.1054 23.5196 17 23.2652 17 23V17C17 16.7348 17.1054 16.4804 17.2929 16.2929C17.4804 16.1054 17.7348 16 18 16C18.2652 16 18.5196 16.1054 18.7071 16.2929C18.8946 16.4804 19 16.7348 19 17V23C19 23.2652 18.8946 23.5196 18.7071 23.7071C18.5196 23.8946 18.2652 24 18 24Z" fill="#05058C"/>
<path d="M10 24C9.73478 24 9.48043 23.8946 9.29289 23.7071C9.10536 23.5196 9 23.2652 9 23V19C9 18.7348 9.10536 18.4804 9.29289 18.2929C9.48043 18.1054 9.73478 18 10 18C10.2652 18 10.5196 18.1054 10.7071 18.2929C10.8946 18.4804 11 18.7348 11 19V23C11 23.2652 10.8946 23.5196 10.7071 23.7071C10.5196 23.8946 10.2652 24 10 24Z" fill="#05058C"/>
<path d="M6 24C5.73478 24 5.48043 23.8946 5.29289 23.7071C5.10536 23.5196 5 23.2652 5 23V22C5 21.7348 5.10536 21.4804 5.29289 21.2929C5.48043 21.1054 5.73478 21 6 21C6.26522 21 6.51957 21.1054 6.70711 21.2929C6.89464 21.4804 7 21.7348 7 22V23C7 23.2652 6.89464 23.5196 6.70711 23.7071C6.51957 23.8946 6.26522 24 6 24Z" fill="#05058C"/>
</g>
<defs>
<clipPath id="clip0_67_255">
<rect width="32" height="32" fill="white"/>
</clipPath>
</defs>
</svg>
